<svg version="1.1" id="Layer_1"
	xmlns="http://www.w3.org/2000/svg"
	xmlns:xlink="http://www.w3.org/1999/xlink" x="0px" y="0px" width="1024px" height="1024px" viewBox="0 0 1024 1024" enable-background="new 0 0 1024 1024" xml:space="preserve">
	<g>
		<rect y="1" fill="none" width="1024" height="1024"/>
	</g>
	<path d="M924.701,493.237c7.15-19.648,11.245-40.744,11.245-62.851c0-101.809-82.689-184.329-184.688-184.329
	c-29.142,0-56.602,6.921-81.12,18.914c-48.189-70.41-129.212-116.662-221.105-116.662c-142.734,0-259.034,111.59-266.892,252.084
	C76.531,433.476-0.091,530.273-0.091,646.598C-0.091,734.848,44.085,829,111.503,858h823.569c54.06-29,89.019-105.1,89.019-178.51
	C1024.091,601.439,984.69,534.237,924.701,493.237z M373.361,615.144l124.867-162.589c3.562-4.656,8.587-7.303,13.773-7.303
	c5.191,0,10.175,2.646,13.786,7.303l124.824,162.589c6.387,8.382,4.672,15.968,3.651,18.878c-1.083,2.938-4.519,9.664-13.917,9.664
	c0,0-44.143,0-44.205,0h-0.021c0,0.077,0,80.989,0,80.989c0,13.045-8.747,23.652-19.451,23.652H447.304
	c-10.702,0-19.477-10.607-19.477-23.652c0,0,0-80.912,0-80.989h-0.021h-44.219c-9.379,0-12.82-6.727-13.835-9.616
	C368.712,631.111,366.991,623.525,373.361,615.144z"/>
</svg>
